<svg width="87" height="276" viewBox="0 0 87 276" fill="none" xmlns="http://www.w3.org/2000/svg">
<path d="M4.30901 171L1.87353 170.436L4.30901 171ZM63.8089 276L63.5601 247.134L38.6854 261.782L63.8089 276ZM60.63 265.679L59.2829 263.573L55.0709 266.267L56.418 268.373L60.63 265.679ZM44.2993 251.812L45.8815 253.748L49.7527 250.584L48.1705 248.648L44.2993 251.812ZM34.4128 232.854L32.7374 230.999L29.0263 234.349L30.7018 236.205L34.4128 232.854ZM16.9206 220.422L18.4904 222.368L22.3818 219.228L20.812 217.282L16.9206 220.422ZM9.77349 200.398L8.71365 198.134L4.18519 200.253L5.24503 202.518L9.77349 200.398ZM0.505642 181.282L0.466861 183.782L5.46626 183.86L5.50504 181.36L0.505642 181.282ZM10.5064 161.625L11.6764 159.415L7.25775 157.075L6.08775 159.285L10.5064 161.625ZM20.016 140.772L18.3373 142.624L22.0423 145.982L23.7211 144.129L20.016 140.772ZM38.5094 126.639L39.9438 124.591L35.8488 121.722L34.4143 123.77L38.5094 126.639ZM43.2245 104.223L42.7084 106.669L47.6007 107.701L48.1168 105.255L43.2245 104.223ZM49.177 84.3963L49.1131 81.8971L44.1147 82.025L44.1787 84.5242L49.177 84.3963ZM43.7251 66.4132L43.7438 68.9131L48.7437 68.8757L48.725 66.3758L43.7251 66.4132ZM49.6371 48.6982L49.9777 46.2215L45.0243 45.5404L44.6837 48.0171L49.6371 48.6982ZM49.8586 29.9752L48.7768 32.2291L53.2844 34.3927L54.3662 32.1388L49.8586 29.9752ZM64.5209 18.4687L66.3507 16.7653L62.9437 13.1057L61.1139 14.8091L64.5209 18.4687ZM76.4655 4.14295L74.2553 5.31129L76.5919 9.73169L78.8021 8.56334L76.4655 4.14295ZM48.1705 248.648C43.5803 243.033 38.8942 237.817 34.4128 232.854L30.7018 236.205C35.1858 241.171 39.796 246.304 44.2993 251.812L48.1705 248.648ZM20.812 217.282C16.2638 211.645 12.4562 206.129 9.77349 200.398L5.24503 202.518C8.16651 208.759 12.2461 214.628 16.9206 220.422L20.812 217.282ZM5.50504 181.36C5.55317 178.258 5.94735 175.005 6.74449 171.564L1.87353 170.436C1.00102 174.201 0.559567 177.807 0.505642 181.282L5.50504 181.36ZM6.74449 171.564C7.56946 168.004 8.86418 164.726 10.5064 161.625L6.08775 159.285C4.26902 162.719 2.80802 166.403 1.87353 170.436L6.74449 171.564ZM23.7211 144.129C28.6603 138.679 34.0267 133.037 38.5094 126.639L34.4143 123.77C30.1598 129.843 25.0755 135.189 20.016 140.772L23.7211 144.129ZM48.1168 105.255C48.8862 101.608 49.3089 97.7074 49.3089 93.5H44.3089C44.3089 97.3686 43.9206 100.923 43.2245 104.223L48.1168 105.255ZM49.3089 93.5C49.3089 90.4248 49.2535 87.387 49.177 84.3963L44.1787 84.5242C44.2546 87.4916 44.3089 90.4832 44.3089 93.5H49.3089ZM48.725 66.3758C48.6786 60.1819 48.8683 54.2894 49.6371 48.6982L44.6837 48.0171C43.8679 53.95 43.6779 60.1131 43.7251 66.4132L48.725 66.3758ZM54.3662 32.1388C56.6957 27.2856 59.9566 22.718 64.5209 18.4687L61.1139 14.8091C56.092 19.4844 52.458 24.5596 49.8586 29.9752L54.3662 32.1388ZM78.8021 8.56334C81.2541 7.26722 83.9075 6.01316 86.779 4.80409L84.8387 0.195911C81.8432 1.4572 79.0567 2.77319 76.4655 4.14295L78.8021 8.56334Z" fill="#334596"/>
</svg>
