<svg width="85" height="255" viewBox="0 0 85 255" fill="none" xmlns="http://www.w3.org/2000/svg">
<path d="M81 177.5L78.5803 176.872L81 177.5ZM22.5002 254.5L50.7053 248.351L31.2778 226.999L22.5002 254.5ZM8.64816 7.56384L11.0129 8.37495L12.6351 3.64541L10.2704 2.83431L8.64816 7.56384ZM26.1287 12.062L24.2932 10.3647L20.8986 14.0358L22.7341 15.7331L26.1287 12.062ZM31.9527 29.1521L32.9375 31.4499L37.5332 29.4803L36.5484 27.1825L31.9527 29.1521ZM41.3558 44.554L40.9514 42.0869L36.0173 42.8957L36.4217 45.3628L41.3558 44.554ZM38.098 62.4414L38.2198 64.9384L43.2139 64.6948L43.0921 62.1978L38.098 62.4414ZM43.4859 79.7559L43.4739 77.256L38.474 77.2799L38.4859 79.7799L43.4859 79.7559ZM38.9823 97.3159L39.2648 99.7999L44.2328 99.2349L43.9503 96.7509L38.9823 97.3159ZM48.0144 112.499L47.031 110.201L42.4341 112.167L43.4175 114.466L48.0144 112.499ZM52.7674 129.516L54.364 131.439L58.2115 128.246L56.6149 126.323L52.7674 129.516ZM68.2885 138.361L66.487 136.627L63.0204 140.23L64.8219 141.964L68.2885 138.361ZM75.7344 154.242L77.0784 156.35L81.2944 153.662L79.9505 151.554L75.7344 154.242ZM84.8006 169.148L84.8901 166.65L79.8933 166.471L79.8038 168.969L84.8006 169.148ZM75.0991 188.551L74.2885 190.915L79.0184 192.537L79.8289 190.172L75.0991 188.551ZM68.8881 212.988L70.2733 210.907L66.1108 208.136L64.7257 210.218L68.8881 212.988ZM48.7035 228.149L46.8481 229.825L50.1991 233.536L52.0545 231.86L48.7035 228.149ZM33.3094 248.044L35.1879 246.395L31.8885 242.638L30.0101 244.288L33.3094 248.044ZM0.539275 5.45718C3.47677 6.00796 6.17271 6.71478 8.64816 7.56384L10.2704 2.83431C7.54661 1.90008 4.61481 1.13422 1.46073 0.54282L0.539275 5.45718ZM22.7341 15.7331C26.7225 19.4211 29.7122 23.9243 31.9527 29.1521L36.5484 27.1825C34.0781 21.4185 30.7129 16.301 26.1287 12.062L22.7341 15.7331ZM36.4217 45.3628C37.2952 50.6919 37.8037 56.4084 38.098 62.4414L43.0921 62.1978C42.7921 56.0484 42.2699 50.1306 41.3558 44.554L36.4217 45.3628ZM38.4859 79.7799C38.4996 82.6489 38.4996 85.5562 38.4996 88.5H43.4996C43.4996 85.5583 43.4997 82.639 43.4859 79.7559L38.4859 79.7799ZM38.4996 88.5C38.4996 91.6084 38.6668 94.5413 38.9823 97.3159L43.9503 96.7509C43.6572 94.1728 43.4996 91.4287 43.4996 88.5H38.4996ZM43.4175 114.466C45.9377 120.356 49.2204 125.242 52.7674 129.516L56.6149 126.323C53.3015 122.33 50.3044 117.851 48.0144 112.499L43.4175 114.466ZM64.8219 141.964C69.1898 146.166 73.0152 149.977 75.7344 154.242L79.9505 151.554C76.8655 146.715 72.6123 142.521 68.2885 138.361L64.8219 141.964ZM79.8038 168.969C79.7184 171.353 79.3341 173.969 78.5803 176.872L83.4197 178.128C84.2534 174.919 84.7005 171.94 84.8006 169.148L79.8038 168.969ZM78.5803 176.872C77.4753 181.126 76.3164 184.999 75.0991 188.551L79.8289 190.172C81.092 186.486 82.2866 182.491 83.4197 178.128L78.5803 176.872ZM64.7257 210.218C60.1449 217.1 54.8837 222.569 48.7035 228.149L52.0545 231.86C58.3984 226.132 63.9894 220.348 68.8881 212.988L64.7257 210.218Z" fill="#334596"/>
</svg>
