<svg width="448" height="298" viewBox="0 0 448 298" fill="none" xmlns="http://www.w3.org/2000/svg">
<path d="M155.239 112.602C145.478 126.125 96.7208 195.834 95.6939 206.82C95.6305 207.492 95.3643 208.761 95.7573 209.04C111.541 208.228 126.31 208.621 142.029 210.308L145.921 230.492C145.82 231.164 142.777 230.847 141.332 230.733C126.132 229.578 88.4044 219.036 72.5071 213.822C69.6801 189.922 70.7576 164.018 77.8189 140.942C78.7443 140.574 81.4319 138.988 81.9517 138.126C84.297 134.307 82.37 127.571 85.2478 126.163C86.7691 125.427 103.985 134.003 114.266 125.846C119.489 121.71 117.524 118.234 115.47 113.287L155.214 112.602H155.239Z" fill="#334596"/>
<path d="M213.06 35.4717C211.767 38.5163 186.121 71.3347 181.189 77.9948L173.71 76.5486C170.591 79.5298 168.88 78.1217 167.435 78.4769C163.213 79.5298 158.56 82.2573 150.295 82.5871C150.231 85.0482 174.572 82.6632 176.854 83.3102C173.583 87.7249 170.452 92.3807 167.194 96.8461C159.752 99.637 154.846 91.0106 149.078 97.8102C144.767 93.1164 136.971 97.4423 135.069 102.644C131.431 100.677 127.894 104.407 127.336 104.572C126.005 104.978 121.695 104.8 120.097 105.536C119.35 105.878 117.79 108.91 114.545 111.333C112.719 107.693 113.619 105.802 108.029 106.5C104.72 97.6326 103.617 99.6877 100.549 97.3155C127.717 62.6703 168.854 39.0491 213.073 35.459L213.06 35.4717Z" fill="#334596"/>
<path d="M383.05 142.275C374.822 144.089 373.098 151.992 367.837 157.739C363.146 157.891 362.284 160.809 361.08 161.608C360.091 162.268 356.516 161.773 353.841 166.441C350.773 167.203 347.655 168.332 346.108 171.275C334.584 168.928 331.554 186.054 360.116 181.906C372.02 188.946 381.617 182.882 382.809 182.87C383.176 182.87 388.602 185.166 389.807 185.28C388.539 211.451 382.352 237.343 369.523 260.19C356.896 260.241 342.546 259.937 330.135 257.628C339.681 246.198 341.569 235.643 345.981 228.006C347.49 225.393 354.335 217.629 350.925 216.449C343.433 213.861 311.816 225.088 301.18 227.321C298.986 227.778 283.824 230.721 283.406 229.554C285.447 222.475 283.431 214.267 285.941 207.404C287.856 206.567 318.738 207.785 322.68 208.584C323.669 208.787 327.662 212.149 327.903 210.03C328.03 208.901 321.577 204.144 314.44 194.287C294.131 166.238 274.659 132.316 256.733 102.454C270.285 100.893 331.504 102.225 338.857 99.2442C339.148 99.13 340.276 98.5465 340.061 98.039C334.901 97.595 337.361 93.8146 328.233 94.8929L325.824 92.9647C315.125 96.0093 316.278 85.5561 308.925 89.5775C305.781 86.7232 300.774 84.4144 296.857 86.6725C291 83.4249 282.265 80.5705 275.128 82.3212C269.372 83.7293 268.523 89.2731 262.083 89.0828C259.37 94.6392 253.957 89.9454 251.028 95.8444C246.845 88.791 219.943 41.498 218.295 38.6563C217.509 37.3116 218.536 35.7512 218.397 34.5588C291.241 31.5903 358.709 73.2888 383.062 142.237L383.05 142.275Z" fill="#334596"/>
<path d="M326.305 117.144C330.755 116.738 336.307 119.96 337.169 124.629C341.467 124.654 339.54 127.229 340.313 127.775C340.706 128.054 343.559 127.496 344.18 127.775C345.017 128.155 346.006 132.037 349.974 129.703L352.877 132.113L296.615 131.39C298.402 128.828 302.953 129.792 304.589 129.221C305.235 128.992 305.755 126.164 317.139 124.87C318.394 121.343 322.616 117.474 326.318 117.131L326.305 117.144Z" fill="#F0EDDF"/>
<path d="M181.176 78.0067C178.881 81.1021 177.03 83.043 176.828 83.3221C174.546 82.6752 150.205 85.0601 150.269 82.599C158.534 82.2692 163.187 79.5417 167.408 78.4888C168.854 78.1336 170.578 79.5417 173.684 76.5605L181.163 78.0067H181.176Z" fill="#F0EDDF"/>
<path d="M103.426 273.242C77.5392 277.682 72.8233 280.156 44.5022 276.147C48.9392 274.041 60.3108 277.035 68.4116 276.147V275.183C64.976 275.792 62.0983 274.295 58.9923 273.255C57.2175 272.658 55.3032 272.113 53.4397 271.808V270.844C57.1161 269.994 65.6733 268.548 65.5085 266.975C62.3899 267.026 44.8318 268.193 43.7796 267.939C43.4246 267.85 43.5387 267.292 43.5387 266.975C53.389 266.556 63.2773 264.476 73.0008 263.106C72.9374 263.537 73.5332 264.971 73.7234 265.034C77.1336 266.379 123.216 254.67 146.643 260.201C151.372 261.317 140.076 261.051 135.056 261.647C126.575 262.662 89.6461 271.301 82.42 274.206C79.6437 275.322 82.9905 275.246 84.3469 275.17C90.5208 274.866 97.2651 272.227 103.426 273.242Z" fill="#BADBE6"/>
<path d="M308.685 279.04C319.195 280.816 330.617 282.897 339.833 287.261C326.269 284.99 322.922 289.176 320.031 289.671C312.007 291.041 264.074 291.231 257.735 290.153C257.596 290.128 256.975 289.481 257.013 289.189C283.673 285.13 293.016 285.142 320.526 287.261V286.297C320.082 286.994 319.993 286.474 318.84 286.297C325.521 285.561 313.274 282.44 310.384 281.945C269.893 274.968 251.46 293.058 214.518 288.707C234.992 287.096 254.769 282.237 274.888 278.558C275.889 278.584 274.533 279.434 275.128 279.522C278.513 280.055 296.211 277.493 306.036 280.487C307.278 277.67 302.714 280.245 302.892 278.076C304.869 278.355 306.733 278.71 308.685 279.04Z" fill="#BADBE6"/>
<path d="M165.241 286.778C143.41 286.08 162.616 287.97 172.479 288.706C172.657 290.964 172.441 289.797 170.552 291.117C170.451 291.193 169.843 291.066 169.348 291.117V292.081C186.475 295.087 203.856 296.191 221.262 294.986C221.312 296.546 210.93 297.295 207.976 297.396C173.582 298.614 153.109 282.63 122.011 291.599L131.671 284.837C124.813 285.89 110.741 289.226 105.112 289.67C103.832 289.772 101.905 289.772 103.908 288.706C116.37 284.799 129.643 285.484 141.813 281.463C156.519 281.272 171.313 280.169 185.765 283.391V284.355C179.325 284.634 170.844 284.253 165.241 286.765V286.778Z" fill="#BADBE6"/>
<path d="M363.248 270.832C363.248 271.149 363.108 271.656 363.489 271.796C367.431 273.28 381.782 274.536 387.398 275.424C380.235 276.718 372.933 277.999 365.669 278.57C366.366 277.136 361.511 278.329 355.768 278.088C344.663 277.606 324.658 273.902 334.762 277.606C334.331 277.58 331.022 278.456 326.065 278.088L326.788 277.124C320.715 274.561 308.735 272.202 305.059 270.844C304.057 270.476 302.79 270.159 303.614 269.398C310.434 269.614 349.544 275.855 352.396 274.231V273.267C347.477 272.722 341.899 272.43 338.147 268.916C342.799 269.804 357.847 270.781 363.26 270.844L363.248 270.832Z" fill="#BADBE6"/>
<path d="M318.826 286.296C319.98 286.474 320.069 286.994 320.513 286.296V287.26C293.015 285.154 283.672 285.142 256.999 289.188C245.691 290.914 235.955 293.958 221.262 294.986C203.843 296.204 186.475 295.1 169.348 292.081V291.117C169.843 291.066 170.451 291.193 170.553 291.117C232.063 301.633 253.069 276.49 318.814 286.283L318.826 286.296Z" fill="black"/>
<path d="M19.3884 260.201C17.7277 260.302 15.4584 259.757 15.7627 261.165C32.0023 262.256 45.4022 261.393 61.401 259.719C61.6292 261.051 53.465 261.825 49.5731 262.129C39.165 262.954 29.7838 261.774 28.8076 262.129C26.1708 263.081 32.5348 263.03 30.7346 264.057C25.4482 264.616 19.0081 262.231 18.9067 264.539C14.2034 264.463 9.46208 263.55 4.89826 265.504C-0.629048 265.465 -2.65742 265.681 5.13912 262.598C7.87742 261.52 17.0178 259.008 19.3884 260.188V260.201Z" fill="#BADBE6"/>
<path d="M303.855 275.183C308.152 275.462 311.322 276.312 314.96 276.629C313.705 279.09 308.114 275.88 308.685 279.039C306.733 278.709 304.869 278.341 302.891 278.075C297.06 277.276 291.418 276.299 285.511 276.147C292.103 275.221 297.199 274.739 303.867 275.183H303.855Z" fill="#BADBE6"/>
<path d="M44.5019 276.148C40.9269 275.641 33.1811 275.209 34.1192 273.738C42.1946 274.956 50.9546 274.563 58.992 273.256C62.098 274.309 64.9757 275.793 68.4113 275.184V276.148C60.3105 277.036 48.9389 274.042 44.5019 276.148Z" fill="#598A99"/>
<path d="M365.669 278.558C347.844 279.953 346.969 278.33 334.761 277.594C324.657 273.89 344.662 277.594 355.768 278.076C361.51 278.317 366.366 277.125 365.669 278.558Z" fill="#598A99"/>
<path d="M394.155 261.647C395.068 264.019 389.769 264.564 387.157 265.034C359.723 269.918 320.234 260.556 292.014 260.2C269.309 263.334 236.373 268.357 214.264 266.962C202.157 266.201 190.443 262.598 178.768 259.718L181.176 258.754C208.356 263.245 220.894 264.996 249.507 263.105C264.948 262.078 280.389 258.45 295.868 257.79C321.958 256.674 335.484 262.319 358.646 263.105C370.512 263.511 382.352 262.801 394.142 261.659L394.155 261.647Z" fill="#BADBE6"/>
<path d="M91.3575 255.369C93.7535 256.51 98.3808 253.96 100.536 256.333C86.7303 258.464 67.2326 263.386 54.8976 264.553C42.9302 265.682 30.8868 264.743 18.9194 264.553C19.0209 262.244 25.4609 264.629 30.7474 264.071C32.5475 263.044 26.1835 263.094 28.8204 262.143C29.7966 261.788 39.1778 262.967 49.5858 262.143C53.4778 261.838 61.6419 261.052 61.4137 259.733C71.4668 258.68 81.3932 257.018 91.3575 255.381V255.369Z" fill="#598A99"/>
<path d="M160.892 249.571C161.196 251.004 159.878 250.446 157.989 250.535C157.811 250.535 154.046 249.773 157.507 251.017C158.471 251.372 160.955 251.448 161.856 252.463C152.259 251.334 144.45 251.435 134.815 251.981C126.968 249.685 118.309 251.55 110.183 251.499C131.443 247.883 138.745 246.932 160.892 249.571Z" fill="#BADBE6"/>
<path d="M303.854 275.182C297.186 274.751 292.103 275.22 285.498 276.146C280.553 276.844 277.093 278.163 274.874 278.557C254.755 282.235 234.979 287.094 214.505 288.705C200.395 289.822 186.577 289.771 172.492 288.705C162.629 287.957 143.41 286.079 165.253 286.777C193.093 287.665 212.058 287.348 239.872 282.908C252.156 280.941 294.676 269.385 303.626 274.205C304.019 274.421 303.867 274.84 303.867 275.169L303.854 275.182Z" fill="black"/>
<path d="M374.847 270.832C390.795 269.97 418.051 264.058 433.036 257.779C397.552 266.874 364.769 272.393 328.233 264.54C325.672 265.441 337.449 268.765 338.134 268.892C341.886 272.406 347.464 272.685 352.383 273.243V274.207C349.53 275.831 310.421 269.589 303.601 269.374C302.789 270.135 304.044 270.452 305.046 270.82C308.722 272.177 320.702 274.537 326.775 277.099L326.052 278.063C322.262 278.241 317.165 276.808 314.947 276.617C311.308 276.287 308.139 275.45 303.841 275.171C303.841 274.829 303.994 274.423 303.601 274.207C294.663 269.374 252.143 280.943 239.846 282.909C212.045 287.349 193.067 287.667 165.228 286.779C170.831 284.254 179.312 284.647 185.752 284.368V283.404C171.313 280.169 156.506 281.286 141.8 281.476C129.617 285.51 116.357 284.812 103.895 288.72C114.328 282.009 125.751 277.137 137.224 272.532C132.546 265.238 112.566 271.695 103.413 273.255C97.2648 272.241 90.5078 274.879 84.3339 275.184C82.9648 275.247 79.6307 275.336 82.407 274.22C89.633 271.315 126.575 262.675 135.043 261.661C140.063 261.052 151.359 261.331 146.63 260.214C123.19 254.683 77.1205 266.392 73.7103 265.048C73.5202 264.972 72.9117 263.551 72.9877 263.119C93.8926 260.189 114.62 255.559 135.766 254.417C133.344 258.603 160.157 256.865 166.914 255.863C167.535 255.914 176.511 259.174 178.742 259.732C190.418 262.612 202.131 266.227 214.238 266.976C236.36 268.359 269.283 263.348 291.988 260.214C320.208 260.57 359.698 269.932 387.131 265.048C389.755 264.578 395.055 264.045 394.129 261.661C407.047 260.405 420.891 258.451 432.77 254.417C435.597 252.983 441.669 253.745 445.574 252.971C431.705 262.866 412.816 267.369 395.346 269.881C390.187 270.629 375.291 272.494 374.822 270.845L374.847 270.832Z" fill="#598A99"/>
<path d="M374.847 270.832C371.069 271.035 367.051 270.883 363.26 270.832C357.847 270.769 342.799 269.792 338.146 268.904C337.462 268.777 325.684 265.453 328.245 264.553C364.781 272.392 397.565 266.887 433.049 257.791C418.051 264.071 390.795 269.969 374.86 270.845L374.847 270.832Z" fill="black"/>
<path d="M302.397 266.48C282.531 263.816 253.614 271.123 231.885 271.795C227.119 271.947 222.162 271.96 217.395 271.795C204.642 271.364 192.091 270.095 179.972 265.998C189.214 266.657 198.215 269.423 207.494 269.867C210.575 270.006 232.291 269.613 236.475 269.385C247.529 268.789 298.378 261.05 304.564 265.998V266.962C303.195 267.216 302.777 266.53 302.397 266.48Z" fill="black"/>
<path d="M302.396 266.48C288.185 268.764 273.72 270.274 259.42 271.796C260.117 268.396 247.757 272.316 241.799 272.76C238.135 273.039 231.162 273.077 231.898 271.796C253.627 271.124 282.543 263.816 302.409 266.48H302.396Z" fill="#BADBE6"/>
<path d="M259.421 271.797C254.642 272.304 249.926 273.459 245.172 274.207C232.444 275.412 219.792 274.689 207.013 274.689L219.082 273.243L217.396 271.797C222.162 271.962 227.119 271.949 231.886 271.797C231.151 273.078 238.123 273.04 241.787 272.761C247.745 272.317 260.118 268.397 259.408 271.797H259.421Z" fill="#BADBE6"/>
<path d="M176.106 273.242C177.945 273.242 189.975 273.826 190.596 274.206V275.17C171.91 274.739 153.553 277.441 135.298 280.727C148.292 276.414 162.313 273.268 176.106 273.242Z" fill="black"/>
<path d="M318.827 286.296C253.082 276.49 232.076 301.646 170.566 291.13C172.455 289.798 172.67 290.965 172.493 288.719C186.577 289.785 200.408 289.836 214.505 288.719C251.447 293.071 269.88 274.98 310.371 281.958C313.261 282.452 325.508 285.573 318.827 286.309V286.296Z" fill="#598A99"/>
<path d="M285.497 276.148C291.405 276.313 297.059 277.277 302.878 278.077C302.7 280.246 307.264 277.683 306.022 280.487C296.197 277.493 278.499 280.056 275.115 279.523C274.519 279.434 275.875 278.584 274.874 278.559C277.092 278.153 280.553 276.833 285.497 276.148Z" fill="#598A99"/>
<path d="M325.47 230.262C323.353 235.945 317.001 243.151 311.334 245.218C291.545 248.567 272.326 255.037 252.651 258.754C252.461 258.792 250.521 259.972 249.025 260.2C245.184 260.784 238.592 261.012 234.535 261.165C198.925 262.497 184.359 256.306 161.337 252.602C160.436 251.574 158.472 251.358 157.495 251.016L157.977 250.534C159.866 250.445 161.172 251.003 160.88 249.57C166.179 250.204 169.526 252.525 168.423 249.976C166.648 249.95 161.831 249.088 162.604 247.362L172.962 248.593C174.736 248.732 178.819 249.379 179.237 247.629C203.362 249.798 227.804 250.102 251.916 247.629C265.696 246.221 298.885 239.738 309.813 233.294C314.859 231.797 320.31 231.34 325.457 230.262H325.47Z" fill="#D92932"/>
<path d="M307.329 233.739C340.594 239.257 263.63 246.387 249.85 247.808C225.737 250.281 201.372 251.068 177.171 247.338C160.297 241.49 141.902 243.888 124.535 241.541C124.484 241.541 124.699 240.627 124.294 240.577C116.637 239.498 83.5995 234.005 78.8963 231.392C77.6666 230.707 76.2213 228.627 75.2706 227.523C74.9663 227.168 72.8365 225.696 72.8619 225.354C72.7478 224.402 74.0789 223.971 74.8015 223.971C76.234 223.945 96.7966 230.796 102.058 231.988C115.825 235.096 129.466 236.657 143.31 239.207C145.832 239.676 147.962 239.536 150.827 239.854C156.583 240.501 157.457 239.879 162.845 240.653L188.428 242.911C197.214 242.86 199.305 243.571 203.666 243.812C210.119 244.154 223.658 244.814 236.31 244.027C242.332 243.659 258.635 241.35 265.671 240.45C279.007 238.724 294.055 234.779 307.329 233.764V233.739Z" fill="#D92932"/>
<path d="M251.193 258.691C270.868 254.974 291.544 248.58 311.334 245.218C317.001 243.15 323.174 235.754 325.304 230.071C328.118 229.475 343.94 225.758 345.068 227.255C339.934 237.391 336.549 249.189 328.08 257.168C309.28 251.193 255.135 260.619 251.446 259.744C251.091 259.655 251.193 259.02 251.193 258.691Z" fill="#423E33"/>
<path d="M126.613 241.833C153.527 243.254 162.376 241.782 179.25 247.63C178.831 249.381 174.749 248.734 172.974 248.595C164.671 247.935 156.988 246.184 147.62 245.69C128.109 244.675 111.084 247.96 92.258 252.248C90.2043 250.637 89.3169 248.569 87.5674 246.73C100.46 246.704 113.759 242.48 126.613 241.82V241.833Z" fill="#423E33"/>
<path d="M126.612 241.833C113.745 242.493 100.459 246.717 87.5662 246.743C81.9502 240.844 78.2737 235.858 75.9031 227.752C76.8412 228.856 79.7443 230.987 80.9867 231.685C85.69 234.298 118.727 239.791 126.384 240.869C126.79 240.92 126.574 241.833 126.625 241.833H126.612Z" fill="#D92932"/>
<path d="M158.001 250.534L157.519 251.016C154.058 249.761 157.823 250.547 158.001 250.534Z" fill="#598A99"/>
<path d="M218.575 33.4411C218.701 34.6336 218.93 36.2066 219.12 37.0693C219.83 40.2534 247.225 86.3159 251.409 93.3693C253.07 96.1729 255.073 98.8369 256.721 101.59C274.646 131.465 293.89 165.121 314.187 193.169C321.324 203.014 328.804 209.445 328.677 210.562C328.436 212.68 323.15 209.077 322.161 208.874C318.218 208.063 287.856 206.578 285.942 207.428C283.432 214.279 285.815 221.852 283.774 228.931C284.192 230.098 297.757 227.218 299.95 226.762C310.586 224.529 342.99 213.657 350.659 215.649C356.314 217.108 347.452 225.29 346.07 227.967C342.064 235.743 340.163 245.537 330.617 256.967C343.028 259.276 355.667 259.669 368.281 259.631C389.591 259.555 410.484 256.523 431.541 253.833C419.675 257.867 405.831 259.821 392.9 261.077C381.11 262.219 369.27 262.929 357.404 262.523C334.242 261.737 320.716 256.091 294.626 257.208C279.147 257.867 263.706 261.496 248.265 262.523C219.639 264.413 207.102 262.663 179.934 258.172C161.869 255.191 160.589 252.425 134.537 253.821C113.391 254.95 92.6509 259.593 71.7587 262.523C62.0352 263.893 52.1596 265.974 42.2967 266.392C29.3531 266.938 16.5744 265.035 3.65625 264.946C8.22008 262.993 12.9614 263.906 17.6647 263.982C29.632 264.172 41.6755 265.111 53.6429 263.982C65.9779 262.815 85.4756 257.893 99.2812 255.762C110.678 254.011 122.024 252.07 133.573 251.41C143.221 250.865 151.017 250.763 160.614 251.892C183.826 254.633 197.682 261.914 233.293 260.595C237.337 260.443 243.942 260.214 247.783 259.631C249.266 259.402 251.219 258.223 251.409 258.185C251.409 258.502 251.295 259.06 251.65 259.149C255.326 260.024 308.19 250.281 326.991 256.244C335.459 248.252 339.491 237.621 344.612 227.485C343.484 225.988 326.661 230.035 323.847 230.631C318.7 231.722 313.439 232.521 308.393 234.018C295.095 235.972 281.885 239.067 268.549 240.78C261.513 241.693 243.181 243.786 237.16 244.167C224.508 244.953 211.678 244.522 203.349 244.167C201.46 244.091 192.586 243.57 189.341 243.203L163.745 240.792C158.357 240.018 158.028 240.792 152.285 240.145C149.433 239.828 146.466 239.815 143.943 239.346C130.1 236.796 116.18 235.198 102.412 232.102C97.1514 230.91 76.3099 224.351 74.89 224.364C74.1674 224.364 73.5589 224.136 73.6857 225.087C73.6603 225.43 75.7901 226.901 76.0944 227.256C78.465 235.35 81.5836 239.727 87.1997 245.626C88.9492 247.465 90.2169 249.825 92.2706 251.423C111.096 247.135 126.829 244.661 146.365 245.143C159.334 245.461 166.737 247.592 175.028 248.252L162.782 247.554C162.008 249.279 167.282 249.457 169.057 249.482C170.16 252.032 164.937 249.622 159.638 249C137.491 246.374 130.188 247.313 108.929 250.928C102.374 252.045 95.8963 253.846 90.0901 254.797C80.1258 256.421 70.1994 258.096 60.1463 259.149C44.1476 260.823 30.7477 261.699 14.508 260.595C14.2038 259.187 16.473 259.732 18.1337 259.631C19.2493 259.567 20.403 259.656 21.5186 259.631C26.0824 259.517 30.4687 259.44 35.0453 259.149C52.9963 257.982 71.0615 255.838 88.6576 252.146C81.254 244.091 76.1324 235.096 71.7587 225.087C68.0316 220.863 57.2305 221.776 50.5116 213.01C39.6852 198.878 65.4835 210.866 71.277 212.769C87.1743 217.996 124.889 228.538 140.102 229.679C141.547 229.794 144.59 230.111 144.691 229.438L142.029 210.346C126.309 208.659 110.488 208.57 94.7047 209.382C94.3117 209.103 94.4004 206.439 94.4638 205.754C95.4907 194.768 144.108 125.756 153.87 112.246C157.749 106.867 162.021 101.666 165.938 96.2998C169.196 91.847 172.328 87.1786 175.599 82.7639C175.801 82.4848 177.652 80.5439 179.947 77.4485C184.878 70.7884 208.534 35.2932 211.818 34.9254C212.667 34.8365 212.566 34.9254 212.781 34.2023C214.454 28.7981 212.73 4.47918 213.263 2.30989C214.378 -2.18093 218.004 0.698775 218.334 3.99711C230.225 -0.354155 239.556 12.7884 252.867 12.9407C241.736 31.1069 232.279 19.2075 218.815 24.2946C218.296 24.6498 218.448 32.2867 218.575 33.4792V33.4411Z" fill="black"/>
<path d="M167.422 214.291L188.187 216.219C189.734 216.904 189.341 231.95 189.392 234.347L174.661 233.624C169.438 228.778 166.294 220.989 167.422 214.291Z" fill="#334596"/>
<path d="M259.179 207.998C261.055 208.036 262.995 207.58 263.768 208.721C261.778 220.71 261.208 235.134 246.147 234.575L248.809 209.686C249.228 208.747 257.962 207.973 259.192 207.998H259.179Z" fill="#334596"/>
<path d="M36.2996 259.721C31.7358 260.025 27.3495 260.089 22.7729 260.203C24.814 257.843 33.4219 258.401 36.2996 259.721Z" fill="#598A99"/>
<path d="M134.815 251.983C123.266 252.642 111.92 254.57 100.523 256.334C98.3679 253.949 93.7407 256.499 91.3447 255.37C97.1509 254.418 103.629 252.617 110.183 251.5C118.309 251.551 126.968 249.686 134.815 251.983Z" fill="#598A99"/>
<path d="M181.175 258.743L178.767 259.707C176.536 259.162 167.56 255.889 166.939 255.838C160.169 256.827 133.369 258.578 135.791 254.392C161.843 252.996 163.123 255.762 181.188 258.743H181.175Z" fill="#BADBE6"/>
<path d="M79.7573 223.465V222.019C81.697 222.653 95.1349 226.611 95.9336 226.37C101.436 224.708 76.5373 219.228 74.4456 216.703C85.1072 220.128 96.1364 223.845 107.039 226.37C119.387 229.224 153.134 233.816 154.744 234.273C155.428 234.476 154.794 238.104 153.603 238.104C152.411 238.104 87.1862 225.571 79.7573 223.477V223.465Z" fill="#D92932"/>
<path d="M336.688 220.57C331.858 225.936 313.387 228.486 311.334 229.755C311.105 229.894 310.966 230.643 310.611 231.201C297.034 233.751 278.652 236.897 264.973 238.94L264.529 235.705C268.117 235.146 290.784 232 300.71 229.755C312.779 227.027 324.607 223.234 336.688 220.57Z" fill="#D92932"/>
<path d="M343.926 218.631C343.85 220.382 340.021 225.342 339.096 225.875C336.18 227.587 315.935 230.188 310.597 231.19C310.952 230.632 311.092 229.883 311.32 229.744C313.374 228.475 331.845 225.925 336.675 220.559C339.071 220.026 341.416 218.948 343.913 218.631H343.926Z" fill="#D92932"/>
<path d="M153.883 234.17C157.065 234.639 201.968 237.696 203.033 237.481C204.034 238.737 204.3 239.282 204.465 241.895C204.49 242.263 157.217 238.039 153.616 238.09C153.223 237.722 153.401 234.094 153.883 234.157V234.17Z" fill="#D92932"/>
<path d="M203.032 237.483C204.236 237.395 243.891 236.989 245.007 236.938C246.122 236.887 244.068 240.756 243.84 240.795C241.317 241.264 205.542 241.911 204.465 241.911C203.894 241.911 202.816 237.509 203.032 237.496V237.483Z" fill="#D92932"/>
<path d="M74.446 216.702C76.5377 219.226 101.436 224.707 95.934 226.368C95.1353 226.609 81.6974 222.651 79.7578 222.017C74.7375 220.393 59.9305 215.002 57.5471 210.904C63.366 212.427 68.7539 214.875 74.446 216.702Z" fill="#D92932"/>
<path d="M57.5463 210.905C59.9296 215.002 74.7494 220.394 79.7569 222.017V223.464C75.0029 222.119 62.4017 219.112 59.2324 217.184C58.8394 216.943 52.7669 211.12 52.7162 210.663C52.3866 208.063 56.811 210.714 57.5463 210.905Z" fill="#423E33"/>
<path d="M264.631 235.68C265.328 235.63 265.48 238.852 264.973 238.941C264.301 239.029 244.829 240.755 243.726 240.805C243.244 240.831 244.03 237.266 244.689 237C245.386 236.721 263.883 235.731 264.631 235.68Z" fill="#D92932"/>
<path d="M339.11 225.888C340.035 225.342 343.864 220.382 343.94 218.644C345.233 218.479 351.242 217.337 351.673 218.885C347.578 225.812 348.389 226.865 339.122 225.888H339.11Z" fill="#423E33"/>
<path d="M274.153 219.125C275.37 220.939 276.346 230.301 275.839 231.443C275.522 232.179 269.754 233.815 270.045 229.997C270.083 229.413 274.508 222.005 274.153 219.125Z" fill="#334596"/>
<path d="M221.021 212.35C224.52 212.35 221.896 233.015 219.753 232.558C219.842 229.92 218.359 212.35 221.021 212.35Z" fill="#334596"/>
<path d="M264.681 187.258C265.074 187.397 266.532 190.036 266.013 194.717C263.097 220.952 265.062 190.797 256.999 188.92L264.669 187.258H264.681Z" fill="#BADBE6"/>
<path d="M216.052 198.814C216.293 201.326 218.296 234.462 217.395 235.071C217.218 235.185 216.812 235.286 216.622 234.969C216.077 234.043 215.215 201.377 216.052 198.814Z" fill="#D92932"/>
<path d="M213.3 214.291L214.264 235.071C212.869 228.423 211.766 221.002 213.3 214.291Z" fill="#334596"/>
<path d="M225.851 211.653C226.738 212.237 221.756 228.678 220.856 229.591C221.705 228.729 221.337 214.102 220.856 212.516C220.818 212.389 225.736 211.577 225.851 211.653Z" fill="#334596"/>
<path d="M199.533 177.554C199.165 178.759 207.519 191.064 204.363 184.074C207.621 185.787 205.707 183.567 205.808 183.351C205.871 183.237 206.987 183.745 207.253 181.182C207.443 179.431 206.29 167.532 207.735 171.997C208.039 172.949 209.7 190.861 209.18 191.813C197.238 199.31 197.707 197.357 189.86 188.908C192.142 185.787 192.598 179.685 191.064 176.095C191.14 192.929 184.852 184.912 194.208 196.151C191.445 197.192 187.895 199.133 185.271 197.357C181.391 194.731 185.068 176.438 187.933 172.467C194.132 163.866 195.894 172.797 199.52 177.541L199.533 177.554Z" fill="#334596"/>
<path d="M206.772 235.07C212.426 234.804 208.813 228.258 208.699 224.198C208.559 219.022 209.992 206.856 208.217 203.178L207.976 202.213C197.758 210.041 196.123 223.868 200.002 234.892C199.508 235.171 196.351 235.209 195.654 234.968C196.059 222.955 195.464 212.07 200.002 200.767L209.903 200.285C214.657 207.491 207.862 220.088 212.071 234.36C211.716 235.412 207.697 235.171 206.759 235.083L206.772 235.07Z" fill="#334596"/>
<path d="M200.014 200.756C195.476 212.059 196.072 222.944 195.666 234.957C195.489 234.894 194.652 235.071 191.914 234.475L189.873 201.479L200.014 200.756Z" fill="#334596"/>
<path d="M206.772 235.072C204.769 234.869 203.983 235.782 202.905 233.385C202.981 222.919 199.203 210.728 208.217 203.18C209.992 206.859 208.559 219.024 208.698 224.2C208.8 228.26 212.413 234.806 206.772 235.072Z" fill="#334596"/>
<path d="M202.677 145.179C207.507 144.887 208.495 146.676 209.193 151.217C189.175 155.949 194.208 145.686 202.677 145.179Z" fill="#F0EDDF"/>
<path d="M211.12 184.328L210.156 173.215C212.857 174.661 224.14 187.271 218.131 187.715C215.785 187.88 212.578 185.913 211.133 184.328H211.12Z" fill="#334596"/>
<path d="M198.328 160.16C198.823 160.033 206.568 161.226 208.47 160.642C209.928 161.238 206.949 168.444 204.603 168.862C200.382 169.598 194.335 161.238 198.328 160.16Z" fill="#D92932"/>
<path d="M196.871 165.958C197.403 165.958 197.974 169.573 205.326 171.996L205.086 179.481C204.908 177.908 193.384 166.021 196.871 165.945V165.958Z" fill="#F0EDDF"/>
<path d="M204.604 152.917C205.505 152.917 211.501 153.31 211.843 153.399C216.901 154.794 199.369 155.441 192.282 155.568C191.61 154.477 203.679 152.917 204.592 152.904L204.604 152.917Z" fill="#F0EDDF"/>
<path d="M205.086 195.441C210.879 194.73 211.297 199.69 202.182 199.792C193.993 199.881 202.842 195.72 205.086 195.441Z" fill="#F0EDDF"/>
<path d="M198.81 157.256C209.459 154.338 217.306 162.28 198.328 158.702L197.606 157.979C197.986 157.928 198.62 157.307 198.81 157.256Z" fill="#F0EDDF"/>
<path d="M193.498 197.368C198.823 196.468 196.934 200.464 195.907 200.755C193.853 201.339 187.223 198.447 193.498 197.368Z" fill="#F0EDDF"/>
<path d="M210.156 173.214L211.12 184.327C212.21 196.48 209.561 184.061 208.952 172.25C209.307 172.694 209.662 172.948 210.156 173.214Z" fill="black"/>
<path d="M205.808 183.364C205.694 183.58 207.608 185.8 204.363 184.087C207.52 191.077 199.165 178.772 199.533 177.566C200.788 179.216 203.932 182.692 205.808 183.364Z" fill="#F0EDDF"/>
<path d="M212.819 187.221C224.418 189.885 213.554 190.164 212.819 189.631C212.426 189.352 212.426 187.487 212.819 187.221Z" fill="#F0EDDF"/>
<path d="M202.436 178.531C201.916 177.896 195.109 170.234 196.402 169.828C198.887 172.391 200.598 175.499 202.436 178.531Z" fill="#334596"/>
<path d="M209.916 192.535C210.93 192.408 210.068 195.466 209.434 195.44C208.648 195.402 208.953 192.662 209.916 192.535Z" fill="#F0EDDF"/>
<path d="M202.436 178.529C202.841 179.024 204.806 179.976 204.122 181.434C202.905 180.305 202.524 178.682 202.436 178.529Z" fill="#334596"/>
<path d="M195.907 158.714C196.643 158.447 196.972 159.424 196.389 159.678C195.679 159.995 195.324 158.917 195.907 158.714Z" fill="#BADBE6"/>
<path d="M246.857 201.237L246.376 196.404C247.377 193.955 249.482 192.179 250.724 189.883C248.759 185.735 248.024 181.193 248.556 176.588C245.298 187.574 253.893 188.044 242.763 197.368C227.816 200.654 230.846 196.721 231.417 185.291C233.584 189.642 230.288 183.172 234.32 186.255C234.345 186.28 234.142 186.407 234.801 186.737C234.852 186.762 234.599 188.336 235.765 187.46C237.996 182.348 244.259 176.525 243.98 173.201C244.512 172.453 245.526 169.484 246.148 169.332C255.161 172.377 254.16 186.839 256.53 195.668C256.201 196.645 247.846 201.389 246.87 201.224L246.857 201.237Z" fill="#334596"/>
<path d="M242.762 202.683C243.409 202.632 245.615 202.518 245.906 202.924C243.65 213.999 247.288 229.983 242.281 235.058C227.233 234.296 237.413 236.694 236.728 217.906C238.161 215.407 237.856 234.461 239.137 230.465C239.656 228.867 238.148 210.168 237.691 209.204C237.527 208.861 234.015 207.161 231.898 204.37C235.422 204.472 239.53 202.924 242.762 202.683Z" fill="#334596"/>
<path d="M229.236 202.684C238.706 210.321 235.055 224.77 230.2 235.058H221.503C227.943 221.573 227.487 217.044 229.236 202.684Z" fill="#334596"/>
<path d="M236.957 160.642C240.608 160.439 243.46 160.287 242.509 165.234C242.066 167.518 231.797 175.928 229.959 161.847C232.025 161.644 235.22 160.731 236.957 160.642Z" fill="#D92932"/>
<path d="M234.065 145.66C236.88 145.051 246.172 147.056 244.448 152.181C243.713 154.388 237.463 151.686 231.644 152.422C229.92 151.661 231.416 146.231 234.053 145.66H234.065Z" fill="#F0EDDF"/>
<path d="M230.111 172.059C232 172.541 230.795 173.771 229.959 174.177C228.501 173.797 228.78 178.731 228.032 181.916C225.268 180.825 222.466 182.017 219.817 182.88C218.904 179.911 227.119 172.591 230.111 172.059Z" fill="#334596"/>
<path d="M230.199 153.398C232.152 153.132 247.25 154.413 247.339 156.063C245.45 157.23 240.595 155.555 237.92 155.339C237.172 155.276 226.016 155.821 227.055 154.134C229.718 153.944 230.035 153.437 230.199 153.411V153.398Z" fill="#F0EDDF"/>
<path d="M231.644 198.827C232.316 198.637 241.723 198.853 240.582 201.973C240.163 203.128 232.138 202.899 231.162 202.214C229.666 201.161 231.137 198.98 231.644 198.827Z" fill="#F0EDDF"/>
<path d="M229.718 157.255C230.44 156.963 242.991 157.407 243.967 159.424L230.681 160.147C229.794 159.374 228.057 157.902 229.718 157.242V157.255Z" fill="#F0EDDF"/>
<path d="M228.032 181.903C227.892 182.5 228.121 183.4 228.032 184.073C225.319 185.595 220.958 186.546 219.817 182.867C222.454 182.005 225.268 180.8 228.032 181.903Z" fill="#334596"/>
<path d="M234.788 186.737C237.527 182.031 240.835 177.641 243.967 173.201C244.258 176.525 237.996 182.348 235.752 187.46C234.586 188.335 234.839 186.762 234.788 186.737Z" fill="#F0EDDF"/>
<path d="M234.307 186.256C230.288 183.173 233.572 189.643 231.404 185.292C231.632 180.814 232.355 176.259 232.608 171.756C233.585 176.703 231.505 181.968 234.294 186.256H234.307Z" fill="#F0EDDF"/>
<path d="M242.762 198.333C244.993 198.459 244.41 202.303 242.762 202.202C240.784 202.088 240.594 198.218 242.762 198.333Z" fill="#F0EDDF"/>
<path d="M246.858 201.238C243.701 200.718 246.262 196.683 246.376 196.404L246.858 201.238Z" fill="#F0EDDF"/>
<path d="M239.137 177.553C239.961 176.335 240.696 175.346 241.545 174.166C240.316 176.158 239.961 176.411 239.137 177.553Z" fill="#334596"/>
<path d="M237.691 179.495C238.452 178.15 238.629 178.264 239.136 177.566C239.048 177.693 239.339 177.706 237.691 179.495Z" fill="#334596"/>
<path d="M241.546 174.179C241.926 173.557 242.104 173.316 242.509 172.732C242.116 173.367 241.99 173.57 241.546 174.179Z" fill="#334596"/>
<path d="M242.508 172.72C242.559 172.656 242.268 171.92 243.231 171.273C244.068 172.149 242.546 172.656 242.508 172.72Z" fill="#334596"/>
<path d="M237.691 179.492C237.691 179.492 237.945 180.279 236.969 180.938C236.132 180.05 237.653 179.556 237.691 179.492Z" fill="#423E33"/>
<path d="M242.763 167.404C244.804 169.079 237.515 175.828 235.03 180.94C233.496 165.057 234.371 174.813 242.763 167.404Z" fill="#F0EDDF"/>
<path d="M236.474 175.143C236.779 175.054 237.134 175.118 237.197 175.384C237.641 177.033 233.85 175.93 236.474 175.143Z" fill="#598A99"/>
<path d="M213.541 44.6553C212.21 45.518 209.459 53.3705 208.229 56.9733C200.319 80.1632 194.563 104.165 188.909 128.014C186.285 139.089 184.016 156.647 182.152 164.258C181.67 166.199 177.309 173.075 176.359 179.963L161.387 167.645C164.848 164.613 165.329 157.243 166.217 156.05C166.673 155.441 177.854 150.874 165.012 150.494C164.822 137.757 145.185 142.21 149.318 151.217C141.078 154.262 148.101 156.596 148.354 157.014C154.68 167.442 145.21 167.899 143.765 168.85C137.021 173.341 135.931 192.839 137.249 195.668C139.43 200.388 142.941 194.184 143.524 200.743C133.788 197.521 119.095 201.225 109.473 204.612C108.421 204.98 104.339 206.464 104.402 207.517C102.196 207.593 100.105 208.126 97.886 207.999C94.9069 206.299 125.092 159.793 127.589 156.05C154.566 115.595 185.752 77.4357 214.035 38.1348C213.807 40.266 213.858 42.5495 213.554 44.6553H213.541Z" fill="#F0EDDF"/>
<path d="M273.429 142.768C267.927 144.151 269.132 150.037 268.358 150.507C255.186 150.912 266.013 155.162 266.672 156.063C267.686 157.458 268.13 165.818 270.539 168.622C264.732 172.161 261.031 178.01 255.808 182.399C252.347 165.387 242.674 171.286 243.498 163.789C243.891 160.211 248.911 158.004 248.81 156.05C248.658 153.145 245.374 154.439 244.943 153.145C244.715 152.46 248.544 144.849 237.21 144.202C237.388 130.234 237.21 116.242 235.283 102.402C232.836 84.8569 222.289 53.3198 222.733 50.6938C222.758 50.5416 223.252 50.2625 223.455 49.9707C235.118 75.5709 247.352 101.006 261.855 125.122C263.566 127.964 271.933 142.146 273.442 142.755L273.429 142.768Z" fill="#F0EDDF"/>
<path d="M213.541 44.6562C212.653 50.885 210.257 57.0377 209.193 63.2665C204.654 89.742 202.841 116.598 204.363 143.492C189.682 145.154 195.311 151.205 194.702 152.677C194.424 153.349 191.229 153.222 190.836 154.605C189.771 158.347 196.059 157.345 195.666 166.682C195.133 168.547 189.682 166.428 186.488 172.962C181.81 182.539 183.939 199.894 175.306 185.965C179.008 182.324 176.295 180.332 176.346 179.977C177.296 173.088 181.67 166.213 182.139 164.272C184.015 156.66 186.272 139.103 188.896 128.028C194.538 104.179 200.306 80.1768 208.216 56.987C209.446 53.3715 212.21 45.5189 213.528 44.6689L213.541 44.6562Z" fill="#BADBE6"/>
<path d="M273.429 142.768C271.92 142.159 263.553 127.976 261.842 125.134C247.339 101.031 235.105 75.583 223.442 49.9828C223.227 50.2746 222.745 50.5537 222.72 50.7059C222.276 53.3319 232.823 84.8691 235.27 102.414C237.197 116.267 237.387 130.247 237.197 144.214C227.283 143.656 230.085 154.984 228.5 152.193C229.426 125.324 227.993 95.7536 224.634 69.0751C223.455 59.7256 221.008 50.6552 220.045 41.293C238.769 75.9636 258.863 109.898 280.173 143.021C280.566 144.125 273.746 142.92 273.416 142.78L273.429 142.768Z" fill="#BADBE6"/>
<path d="M227.727 157.039C228.133 163.61 229.959 166.642 231.201 170.334C224.647 171.425 220.539 178.884 219.817 176.359C218.093 170.346 221.135 67.4508 219.817 51.1875C223.582 63.4294 228.742 147.194 226.992 152.231C226.409 153.918 224.723 154.679 227.727 157.039Z" fill="#334596"/>
<path d="M213.782 52.3926C212.185 64.9897 215.531 147.156 213.541 151.711C210.892 157.762 209.358 143.389 206.784 143.972C205.06 113.31 207.228 82.3567 213.782 52.3926Z" fill="#334596"/>
<path d="M174.178 186.255C182.583 183.946 173.252 189.655 181.214 188.399C181.835 188.298 182.393 188.792 182.38 189.414C182.241 195.782 180.402 197.939 188.009 199.385C188.516 199.487 188.871 199.943 188.833 200.451L187.831 212.02C187.743 212.997 186.868 213.708 185.904 213.581L167.066 211.246C166.571 211.183 166.204 210.777 166.191 210.282C166.09 205.271 166.242 200.26 164.961 195.427C164.847 194.996 165.025 194.565 165.405 194.323C170.844 190.86 169.551 187.346 170.806 186.737C170.958 186.661 174.026 186.293 174.191 186.255H174.178Z" fill="#BADBE6"/>
<path d="M320.271 207.034C318.763 207.034 318.661 206.578 318.344 206.552C316.798 205.03 310.282 202.062 307.962 201.237C302.561 199.321 295.487 198.598 293.712 196.886C293.294 189.376 293.979 173.709 287.678 168.85C284.927 166.731 283.761 168.457 282.366 166.439L272.947 179.252L272.465 169.586C284.826 169.002 281.086 161.01 285.51 157.268C285.447 158.549 285.434 159.703 285.992 160.896C286.727 162.456 303.03 183.794 306.276 188.932C308.152 192.23 320.195 205.347 320.766 206.324C320.791 206.375 320.145 206.743 320.284 207.047L320.271 207.034Z" fill="#F0EDDF"/>
<path d="M143.511 200.756C143.6 201.771 143.651 208.202 143.27 208.494C130.339 206.807 117.37 207.111 104.389 207.53C104.326 206.477 108.408 205.005 109.46 204.625C119.082 201.25 133.775 197.546 143.511 200.756Z" fill="#BADBE6"/>
<path d="M224.646 5.50586C234.204 11.8615 236.309 18.8514 249.278 16.6187C246.425 20.6528 240.911 22.3147 236.233 22.4162C237.222 18.0522 228.576 22.7333 223.429 19.029C220.145 16.6695 221.248 10.7959 220.285 7.43412C221.375 5.78495 222.643 5.51855 224.633 5.50586H224.646Z" fill="#D92932"/>
<path d="M216.672 3.57812C218.029 61.8699 217.572 120.238 217.154 178.517C215.126 120.314 216.368 61.8572 216.672 3.57812Z" fill="#D92932"/>
<path d="M219.334 195.439C220.412 195.16 222.96 195.68 224.228 194.843C224.963 195.173 226.941 195.261 227.334 195.198C227.777 195.135 228.538 192.851 228.918 192.813C230.199 192.661 229.856 193.955 229.755 195.02C229.21 196.708 227.752 205.727 227.549 206.311C226.915 208.1 226.446 213.25 225.622 214.366C225.622 214.366 224.988 215.876 219.702 216.079C219.423 211.03 218.967 201.236 219.347 195.426L219.334 195.439Z" fill="#334596"/>
<path d="M320.271 207.034C320.144 206.73 320.778 206.362 320.753 206.311C320.182 205.334 308.152 192.204 306.263 188.919C303.017 183.781 286.714 162.456 285.979 160.883C285.421 159.69 285.434 158.536 285.497 157.255C285.637 157.141 287.107 157.813 287.665 155.809C299.201 172.846 309.445 190.923 322.68 206.793C322.338 207.237 320.842 207.034 320.271 207.034Z" fill="#BADBE6"/>
<path d="M318.331 206.553C304.31 205.462 288.45 206.49 287.183 205.589C286.866 205.361 286.79 200.807 286.942 200.515C287.411 199.602 291.924 200.096 293.699 196.887C295.461 198.599 302.548 199.322 307.948 201.238C310.268 202.063 316.784 205.031 318.331 206.553Z" fill="#BADBE6"/>
<path d="M257.886 189.212C265.239 191.965 265.138 197.661 264.276 205.044C264.25 205.221 264.111 205.361 263.946 205.374L249.824 206.997C249.646 207.023 249.469 206.896 249.405 206.718C246.502 197.229 261.74 202.634 257.392 189.681C257.291 189.377 257.582 189.085 257.874 189.199L257.886 189.212Z" fill="#BADBE6"/>
<path d="M249.278 16.6326C236.309 18.8653 234.204 11.8627 224.646 5.51972C229.907 5.48166 237.082 11.3552 242.267 13.2581C250.102 16.1124 251.953 12.8395 249.265 16.6453L249.278 16.6326Z" fill="#D92932"/>
<path d="M223.683 193.995C222.986 195.707 220.413 195.162 219.335 195.441C219.272 195.454 219.551 194.743 218.131 194.959C216.483 197.166 213.795 198.397 211.133 198.105C210.778 184.874 217.687 195.657 220.07 188.197C220.932 188.185 222.758 193.196 223.696 193.995H223.683Z" fill="black"/>
<path d="M212.336 157.255C212.691 157.179 213.337 157.153 213.54 157.496L213.299 174.165C212.729 172.947 207.341 169.015 207.265 168.609C207.151 168 211.727 157.382 212.336 157.255Z" fill="#334596"/>
<path d="M236.232 22.4293C230.946 22.5562 225.85 19.7526 220.538 23.3934C219.765 23.1144 218.307 10.4665 220.297 7.44727C221.261 10.8217 220.145 16.6826 223.441 19.0422C228.588 22.7338 237.234 18.0654 236.245 22.4293H236.232Z" fill="#D92932"/>
<path d="M226.333 185.773C227.043 185.799 227.728 185.596 228.019 186.014C229.642 203.597 220.958 187.93 221.262 186.979C221.44 186.433 225.826 185.748 226.333 185.773Z" fill="#F0EDDF"/>
<path d="M283.076 195.922C284.597 194.476 287.323 191.761 287.425 189.642C287.488 188.361 285.345 183.959 286.22 176.589L285.979 188.907C280.16 196.683 277.866 196.645 268.358 195.427C266.735 194.273 271.007 174.724 270.526 171.502C272.44 171.984 269.473 178.694 271.971 183.338C271.996 183.376 270.969 183.414 271.73 184.302C273.847 183.135 273.416 184.834 273.657 184.784C274.899 184.517 285.219 171.121 285.485 168.355C294.029 174.267 291.456 186.509 292.242 195.656C289.453 198.193 283.697 201.834 283.064 195.897L283.076 195.922Z" fill="#334596"/>
<path d="M271.73 200.756L284.04 201.479C281.568 214.279 286.372 234.538 278.246 230.961C276.408 221.028 277.752 208.748 271.007 201.479L271.73 200.756Z" fill="#334596"/>
<path d="M266.899 198.828C275.418 204.283 272.858 225.633 267.863 228.31C266.113 229.249 262.995 228.399 261.106 229.756C265.124 219.823 265.631 209.357 266.899 198.828Z" fill="#334596"/>
<path d="M269.321 159.68H280.426C282.873 170.019 267.787 172.15 269.321 159.68Z" fill="#D92932"/>
<path d="M267.622 174.663C265.911 177.377 265.695 184.418 264.96 185.293C262.374 188.389 245.057 191.002 267.622 172.734C268.282 173.635 267.711 173.572 267.622 174.663Z" fill="#334596"/>
<path d="M273.187 144.214C275 143.897 282.467 145.94 283.088 147.843C285.027 153.805 278.372 150.76 270.284 150.507C269.016 149.898 270.436 144.696 273.187 144.227V144.214Z" fill="#F0EDDF"/>
<path d="M268.84 155.327C270.399 154.756 287.678 156.418 282.367 159.196C281.771 159.513 281.137 158.232 280.921 158.232C276.725 158.118 267.04 160.68 268.853 155.327H268.84Z" fill="#F0EDDF"/>
<path d="M269.803 196.404C270.146 196.239 277.207 196.67 277.536 196.886C277.65 196.962 278.335 199.423 278.259 199.55C277.27 201.034 264.162 199.157 269.803 196.404Z" fill="#F0EDDF"/>
<path d="M271.97 183.365C278.169 180.853 284.128 168.383 285.497 168.383C285.231 171.148 274.899 184.545 273.669 184.811C273.415 184.862 273.846 183.162 271.742 184.329C270.981 183.428 272.008 183.403 271.983 183.365H271.97Z" fill="#F0EDDF"/>
<path d="M281.149 153.399L282.113 154.363C276.383 153.983 270.399 153.856 264.732 152.676C270.729 151.23 275.394 152.321 281.149 153.399Z" fill="#598A99"/>
<path d="M267.635 175.511C267.724 174.408 268.687 174.953 268.687 174.953C268.687 174.953 269.131 174.826 269.499 175.245C270.5 178.353 266.317 189.732 267.141 191.343C265.708 185.774 267.179 181.042 267.622 175.524L267.635 175.511Z" fill="black"/>
<path d="M262.551 230.237C267.153 229.59 262.31 234.107 257.48 233.384C257.315 232.863 262.018 230.314 262.551 230.237Z" fill="#334596"/>
<path d="M280.426 195.923C283.469 195.2 280.756 202.964 279.222 199.069C279.044 198.625 279.906 196.05 280.426 195.923Z" fill="#F0EDDF"/>
<path d="M283.075 195.922C282.809 193.41 285.826 191.571 287.424 189.643C287.335 191.761 284.597 194.476 283.075 195.922Z" fill="#F0EDDF"/>
<path d="M276.319 178.037C277.662 175.335 279.247 172.924 281.39 170.793C280.832 173.254 278.03 176.172 276.319 178.037Z" fill="#334596"/>
<path d="M282.112 154.363L281.149 153.398C285.446 154.198 289.972 154.883 282.112 154.363Z" fill="#F0EDDF"/>
<path d="M276.319 178.035C276.319 178.035 276.572 178.822 275.596 179.481C274.76 178.593 276.281 178.099 276.319 178.035Z" fill="#334596"/>
<path d="M284.293 150.495C285.028 150.228 285.358 151.205 284.775 151.459C284.065 151.776 283.71 150.698 284.293 150.495Z" fill="#598A99"/>
<path d="M152.208 175.143C152.867 176.209 156.848 183.148 157.279 183.364C158.343 183.896 157.177 181.879 158.242 182.399C158.775 182.653 161.145 186.319 160.41 183.364C162.451 182.488 160.701 176.983 161.614 172.733C168.561 199.322 143.803 188.882 143.498 186.992C145.565 183.681 146.237 177.832 144.703 174.179C145.375 183.275 141.8 187.969 142.04 188.679C142.383 189.656 147.517 191.292 148.797 191.584C132.266 208.038 138.111 176.437 142.04 171.528C148.24 163.776 149.381 170.652 152.182 175.156L152.208 175.143Z" fill="#334596"/>
<path d="M149.786 230.72C150.686 221.485 150.395 212.211 152.689 203.179C155.542 203.242 158.597 202.849 161.386 203.42C150.877 209.471 155.91 222.627 157.52 232.42C157.177 232.991 150.674 230.987 149.786 230.733V230.72Z" fill="#334596"/>
<path d="M152.69 203.166C150.409 212.199 150.687 221.485 149.787 230.707C149.724 230.695 149.952 230.771 148.52 230.555L147.265 230.53L144.957 202.912C145.502 201.619 150.662 203.115 152.69 203.154V203.166Z" fill="#334596"/>
<path d="M163.314 202.684C164.201 209.432 163.757 216.435 163.314 223.222C163.314 223.387 161.805 225.366 161.868 226.127C162.021 227.852 165.71 232.318 162.578 233.269C157.837 231.062 156.975 214.126 158.002 209.699C158.116 209.191 162.87 202.722 163.314 202.696V202.684Z" fill="#334596"/>
<path d="M164.759 184.811C164.721 181.703 164.176 174.662 163.314 172.252C161.603 168.154 175.383 180.447 175.573 181.284C176.841 186.98 167.789 185.191 164.759 184.824V184.811Z" fill="#334596"/>
<path d="M163.554 186.256C170.032 184.1 170.324 189.732 165.963 192.536C164.822 193.272 145.983 197.052 145.438 196.164C152.778 189.948 159.333 190.963 160.169 190.608C161.602 190.011 162.515 186.599 163.554 186.256Z" fill="#F0EDDF"/>
<path d="M164.036 196.887C164.67 197.128 165.038 200.54 164.759 200.997C164.087 202.113 143.537 203.572 144.475 199.069C144.919 196.95 154.782 198.041 161.615 197.864C161.742 197.864 163.91 196.849 164.024 196.899L164.036 196.887Z" fill="#F0EDDF"/>
<path d="M152.449 159.196C160.411 159.691 166.61 156.849 162.832 164.27C158.18 173.417 148.988 160.731 152.449 159.196Z" fill="#D92932"/>
<path d="M156.303 144.215C161.514 143.669 163.301 144.773 163.301 150.253C159.156 150.114 146.339 153.628 150.256 146.866C150.814 145.915 155.175 144.329 156.291 144.202L156.303 144.215Z" fill="#F0EDDF"/>
<path d="M162.579 233.269C165.698 232.318 162.021 227.852 161.869 226.127C161.806 225.366 163.302 223.387 163.314 223.222C163.758 216.435 164.202 209.433 163.314 202.684C166.737 202.417 164.354 211.196 164.76 215.496C165.267 220.85 167.511 228.03 169.476 232.965C167.726 233.028 164.722 233.13 162.579 233.269Z" fill="#334596"/>
<path d="M158.242 155.326C172.466 154.908 160.093 159.792 153.412 158.231C148.417 157.052 152.639 155.491 158.242 155.326Z" fill="#F0EDDF"/>
<path d="M154.857 151.941C182.633 152.03 158.61 153.692 147.124 154.352C146.376 152.436 152.385 153.07 154.857 151.941Z" fill="#F0EDDF"/>
<path d="M160.41 183.363C161.145 186.319 158.775 182.653 158.242 182.399C157.177 181.891 158.331 183.896 157.279 183.363C156.848 183.147 152.867 176.208 152.208 175.143L160.423 183.363H160.41Z" fill="#F0EDDF"/>
<path d="M158.724 194.958C169.601 193.512 158.838 199.918 155.821 195.44C158.28 195.732 158.572 194.97 158.724 194.958Z" fill="#423E33"/>
<path d="M163.313 172.239C164.175 174.662 164.721 181.702 164.759 184.798C163.922 184.354 161.45 167.012 163.313 172.239Z" fill="#BADBE6"/>
<path d="M150.028 168.381C151.435 170.055 157.229 177.692 157.508 178.289C159.688 182.932 152.614 173.937 150.028 168.381Z" fill="#334596"/>
<path d="M148.823 191.571C147.53 191.292 142.408 189.643 142.066 188.666C143.258 188.45 149.013 190.569 148.823 191.571Z" fill="#598A99"/>
<path d="M150.992 164.993C151.486 164.854 153.439 169.357 159.448 170.068L159.207 179.011C159.042 176.804 147.658 165.945 150.992 164.993Z" fill="#F0EDDF"/>
<path d="M157.761 173.214C157.863 173.175 159.612 174.85 158.725 175.142C158.623 175.18 156.874 173.505 157.761 173.214Z" fill="#598A99"/>
<path d="M256.733 102.478C255.085 99.7249 253.373 97.5302 251.713 94.7266C254.628 88.8277 259.357 94.6632 262.07 89.1068C268.497 89.297 269.359 83.7533 275.115 82.3452C282.265 80.5945 291 83.4489 296.844 86.6964C300.774 84.4257 305.769 86.7472 308.913 89.6015C316.265 85.5674 315.112 96.0333 325.811 92.9887L328.22 94.9169C337.348 93.8386 334.888 97.6063 340.048 98.063C340.264 98.5831 339.135 99.154 338.844 99.2682C331.491 102.249 270.272 100.93 256.72 102.478H256.733Z" fill="#F0EDDF"/>
<path d="M167.18 96.8451C163.25 102.211 158.991 107.412 155.112 112.791L115.508 113.273C115.47 113.172 114.747 111.751 114.544 111.345C117.79 108.909 119.349 105.89 120.097 105.548C121.707 104.812 126.004 104.989 127.336 104.583C127.893 104.419 131.418 100.676 135.069 102.655C136.97 97.454 144.767 93.1281 149.077 97.8219C154.845 91.0096 159.751 99.6487 167.193 96.8578L167.18 96.8451Z" fill="#F0EDDF"/>
<path d="M100.524 97.3393C103.591 99.7116 104.707 97.6565 108.003 106.524C113.594 105.826 112.694 107.716 114.519 111.357C114.722 111.763 115.445 113.197 115.483 113.286C117.524 118.246 119.489 121.709 114.278 125.845C103.984 134.014 87.2377 126.073 85.7798 126.327C82.6232 126.872 84.4994 134.344 82.1541 138.163C81.6217 139.025 78.7312 141.41 77.8058 141.791C68.8429 145.406 59.1955 138.708 56.3178 138.886C54.264 140.433 40.3317 142.514 38.9372 142.273C36.8074 141.905 33.3972 138.53 31.204 137.44C27.7431 142.019 13.8615 141.905 11.1612 137.681C7.0284 131.211 15.1038 129.866 15.5095 129.46C16.042 128.94 15.256 123.625 23.4835 124.386C28.1108 115.67 34.31 125.604 39.6598 116.901C37.7202 112.271 42.8037 109.061 46.6576 108.44C48.4071 107.146 50.1312 95.5253 61.6295 101.678C66.6244 92.0747 73.6983 85.7064 85.2981 87.1779C91.3071 87.9391 95.7949 93.6731 100.511 97.3267L100.524 97.3393Z" fill="black"/>
<path d="M87.9734 121.011C88.658 118.397 95.1995 120.237 95.7066 114.008C95.9221 111.281 94.1726 109.606 94.2614 108.211C94.3121 107.399 98.4702 104.329 93.7796 95.8926C96.4292 97.8589 97.849 100.612 102.235 100.726C106.622 106.041 102.869 108.604 111.655 109.669C112.136 115.568 120.605 121.569 111.414 125.375C105.684 127.747 88.1382 126.25 87.5044 124.169C87.4536 124.005 89.4947 121.899 87.9861 121.023L87.9734 121.011Z" fill="#BADBE6"/>
<path d="M60.4508 134.544C60.5522 134.494 61.1734 133.415 62.1369 133.098C69.1221 134.418 74.6367 133.859 78.3131 127.301C79.0991 127.96 85.4251 128.341 80.7218 136.244C75.9805 144.211 56.1405 138.376 60.4381 134.557L60.4508 134.544Z" fill="#BADBE6"/>
<path d="M31.4702 122.47C30.6588 125.679 29.7081 126.567 32.4337 129.472C24.9794 126.44 21.4044 130.272 27.3628 136.475L19.3887 133.088C14.0136 124.893 24.878 127.608 26.3866 126.808C27.5529 126.187 22.1397 124.702 31.4575 122.457L31.4702 122.47Z" fill="#BADBE6"/>
<path d="M18.9075 134.065C19.6048 135.105 19.7949 137.135 19.871 138.416C7.35848 137.921 14.9268 128.128 18.9075 134.065Z" fill="#BADBE6"/>
<path d="M71.5553 102.172C65.7871 100.662 62.5798 103.339 62.377 102.895C63.8095 99.5842 65.2547 98.2141 67.6887 95.8926C66.5985 102.502 72.8864 98.9879 71.5553 102.172Z" fill="#BADBE6"/>
<path d="M42.0944 137.932C44.1988 142.334 35.3627 137.704 32.916 135.763C38.1517 136.347 36.5544 135.002 36.7826 135.04C37.0488 135.078 37.8982 136.08 41.8535 136.968C42.2719 137.057 42.0437 137.92 42.0944 137.932Z" fill="#BADBE6"/>
<path d="M47.4057 111.826C47.4057 111.826 48.179 111.826 47.8874 112.549C47.5325 113.437 44.1476 115.238 44.0209 117.623C43.4631 117.078 41.7516 116.392 41.6122 115.936C40.7501 113.17 45.1238 111.255 47.4057 111.826Z" fill="#BADBE6"/>
<path d="M93.767 95.8791C98.4576 104.315 94.2994 107.398 94.2487 108.197C94.16 109.605 95.9221 111.267 95.6939 113.995C95.1868 120.236 88.6453 118.397 87.9607 120.997C87.7326 122.317 82.9659 126.211 82.4081 126.313C79.936 126.757 70.8084 120.997 78.3006 127.277C74.6242 133.835 69.1096 134.406 62.1244 133.074C61.1609 133.391 60.5397 134.482 60.4383 134.52C54.1377 137.261 49.8654 139.772 42.0816 137.908C42.0309 137.908 42.2591 137.032 41.8407 136.943C37.8854 136.043 37.036 135.053 36.7698 135.015C36.8712 127.112 46.6581 131.412 48.116 130.664C46.3412 124.245 55.8365 122.291 51.0191 122.925C46.2397 123.56 48.192 129.674 38.9503 127.759C32.0538 132.389 29.6325 138.77 19.8709 138.39C19.7822 137.108 19.6047 135.079 18.9075 134.038L19.3892 133.074L27.3632 136.461C21.4049 130.258 24.9799 126.427 32.4342 129.459C29.7085 126.554 30.6467 125.666 31.4707 122.456C32.3834 122.24 34.3865 122.684 36.0599 121.974C36.8332 121.644 39.3179 117.471 42.8169 118.105C44.503 118.409 50.8923 124.27 44.0212 117.623C44.148 115.238 47.5328 113.436 47.8878 112.548C48.1794 111.825 47.3934 111.863 47.4061 111.825C48.1794 110.062 49.4091 97.6932 61.8962 103.364C62.061 103.821 57.7381 107.817 59.234 110.366C62.7329 102.235 71.3028 101.778 77.8316 106.979C79.4036 108.235 78.8077 112.206 83.6251 110.125C77.3625 103.846 78.1485 106.231 77.8316 106.015C75.9553 104.759 73.7748 102.73 71.5563 102.146C72.8874 98.9491 66.6122 102.463 67.6897 95.8664C69.8195 93.8367 72.2789 91.4517 75.1693 90.5511C88.1129 86.5296 92.233 94.7247 93.767 95.8664V95.8791Z" fill="#F0EDDF"/>
<path d="M77.8306 106.992V106.028C78.1602 106.243 77.3615 103.859 83.6241 110.138C78.8067 112.219 79.4026 108.248 77.8306 106.992Z" fill="#BADBE6"/>
<path d="M58.2702 112.802C64.4567 112.18 73.5971 119.449 64.5455 115.212C56.825 114.73 54.2895 115.593 50.0553 121.974C49.5736 117.876 54.5304 113.17 58.2702 112.789V112.802Z" fill="black"/>
<path d="M389.82 185.291C388.603 185.164 383.189 182.868 382.822 182.881C381.63 182.881 372.033 188.945 360.129 181.917C331.567 186.065 334.597 168.939 346.121 171.286C347.668 168.343 350.773 167.214 353.854 166.453C356.529 161.784 360.104 162.279 361.093 161.619C362.297 160.82 363.172 157.902 367.85 157.75C373.111 152.003 374.835 144.1 383.063 142.286C393.433 140.003 400.798 146.079 405.032 154.845C406.034 155.302 415.314 150.456 423.389 163.548C432.758 162.266 434.71 171.933 435.458 172.25C458.543 173.202 446.956 186.065 423.389 181.435C419.725 187.765 410.547 182.691 406.972 183.363C402.294 187.029 395.372 185.862 389.832 185.291H389.82Z" fill="black"/>
<path d="M422.654 178.531C421.209 183.275 412.208 183.554 408.886 180.941C405.489 186.573 385.611 181.854 384.736 180.941C383.735 179.901 385.585 177.706 384.254 178.036C378.131 187.905 359.952 183.44 361.803 177.554C361.93 177.49 363.109 175.74 363.971 175.625C374.277 185.457 385.23 175.549 387.157 175.625C393.242 178.898 406.135 184.721 410.344 177.072C411.346 176.767 416.391 179.507 422.654 178.518V178.531Z" fill="#BADBE6"/>
<path d="M423.617 178.529C430.032 176.766 423.795 169.383 420.714 167.417C430.59 162.165 432.682 174.318 433.518 174.66C441.835 174.825 449.606 176.525 442.697 179.011C439.794 180.052 426.09 181.054 423.617 178.529Z" fill="#BADBE6"/>
<path d="M420.727 167.405C423.795 169.371 430.045 176.754 423.63 178.517C423.377 178.594 422.971 178.467 422.667 178.517C416.404 179.507 411.346 176.754 410.357 177.071C406.148 184.721 393.256 178.898 387.171 175.625C385.256 175.549 374.303 185.457 363.984 175.625C363.122 175.739 361.943 177.503 361.816 177.553C339.631 187.639 334.953 169.358 348.048 174.648C349.139 168.66 363.046 160.351 368.814 160.148L375.33 153.628C373.048 152.283 378.157 146.904 380.401 145.648C387.183 141.855 395.778 143.593 400.444 149.758C406.554 157.827 400.114 156.19 400.203 162.571C404.691 151.737 421.843 157.167 420.727 167.405Z" fill="#F0EDDF"/>
<path d="M383.773 152.917C388.946 152.384 394.257 155.848 395.601 160.897C394.929 169.98 395.157 161.341 393.674 158.486C390.784 152.93 376.763 153.653 383.773 152.93V152.917Z" fill="black"/>
</svg>
