<svg width="273" height="109" viewBox="0 0 273 109" fill="none" xmlns="http://www.w3.org/2000/svg">
<path d="M55.5038 37.3627C56.3038 37.096 57.0505 36.9627 57.7438 36.9627C59.2372 36.9627 60.7038 37.3627 62.1438 38.1627C63.5838 38.9627 64.7038 40.0027 65.5038 41.2827C66.1438 42.296 66.4638 42.9627 66.4638 43.2827C66.4638 43.4427 66.3572 43.6827 66.1438 44.0027C65.7172 44.5893 65.3438 44.8827 65.0238 44.8827C64.5972 44.8827 63.7972 44.2693 62.6238 43.0427C61.0238 41.336 59.4505 40.4827 57.9038 40.4827C56.8905 40.4827 55.8772 40.936 54.8638 41.8427C53.7972 42.8027 53.2638 44.0293 53.2638 45.5227C53.2638 46.056 53.3438 46.616 53.5038 47.2027C54.0372 49.2827 56.7305 52.0293 61.5838 55.4427C64.3572 57.3627 66.1705 59.0427 67.0238 60.4827C67.8772 61.9227 68.3038 64.0027 68.3038 66.7227C68.3038 72.0027 66.4638 75.2293 62.7838 76.4027C61.8772 76.6693 61.1038 76.8027 60.4638 76.8027C58.2238 76.8027 56.0905 75.8427 54.0638 73.9227C52.0905 72.0027 50.5972 69.4427 49.5838 66.2427C49.3172 65.336 49.1838 64.6427 49.1838 64.1627C49.1838 62.9893 49.7172 62.4027 50.7838 62.4027C51.8505 62.4027 52.7572 63.5493 53.5038 65.8427C54.1438 67.8693 55.1038 69.5227 56.3838 70.8027C57.6638 72.0827 59.0238 72.7493 60.4638 72.8027H60.6238C63.2905 72.8027 64.6238 70.9093 64.6238 67.1227C64.6238 67.016 64.5972 66.8293 64.5438 66.5627C64.5438 66.2427 64.5438 66.0027 64.5438 65.8427C64.4372 64.136 64.0638 62.8827 63.4238 62.0827C62.8372 61.2293 61.3172 59.9227 58.8638 58.1627C54.8638 55.336 52.2772 52.9093 51.1038 50.8827C50.0905 49.176 49.5838 47.5493 49.5838 46.0027C49.5838 45.3627 49.6638 44.696 49.8238 44.0027C50.4638 40.7493 52.3572 38.536 55.5038 37.3627ZM72.5713 35.3627C72.8913 34.8827 73.398 34.616 74.0913 34.5627C74.7847 34.456 76.8913 34.4027 80.4113 34.4027C84.2513 34.4027 86.5713 34.5093 87.3713 34.7227C88.1713 34.8827 88.5713 35.416 88.5713 36.3227C88.5713 37.0693 88.0647 37.576 87.0513 37.8427C86.038 38.056 84.038 38.1627 81.0513 38.1627H75.6913L75.6113 39.4427C75.6113 43.496 75.558 47.4427 75.4513 51.2827L75.2113 61.6827L79.8513 61.8427C82.998 61.9493 84.7047 62.216 84.9713 62.6427C85.2913 63.176 85.2913 63.656 84.9713 64.0827C84.6513 64.616 82.998 64.936 80.0113 65.0427L75.4513 65.2827L75.3713 68.3227C75.3713 68.536 75.3447 68.8293 75.2913 69.2027C75.2913 69.5227 75.2913 69.7627 75.2913 69.9227C75.2913 70.9893 75.4513 71.6827 75.7713 72.0027C76.1447 72.3227 76.918 72.4827 78.0913 72.4827C78.4113 72.4827 79.4247 72.4293 81.1313 72.3227C82.9447 72.216 84.0113 72.1627 84.3313 72.1627C85.5047 72.1627 86.278 72.296 86.6513 72.5627C87.078 72.8827 87.2913 73.416 87.2913 74.1627C87.2913 74.696 87.1313 75.096 86.8113 75.3627C86.438 75.6293 84.0113 75.8693 79.5313 76.0827L72.8913 76.3227L72.0913 75.2027C71.718 74.616 71.5313 72.5893 71.5313 69.1227C71.5313 68.856 71.5847 64.2427 71.6913 55.2827C71.798 46.9627 71.9047 41.656 72.0113 39.3627C72.118 37.0693 72.3047 35.736 72.5713 35.3627ZM91.2113 36.9627C91.2113 36.4293 91.318 36.056 91.5313 35.8427C91.7447 35.6293 94.518 35.5227 99.8513 35.5227C108.331 35.5227 112.891 35.6827 113.531 36.0027C114.011 36.2693 114.251 36.776 114.251 37.5227C114.251 38.056 114.091 38.4827 113.771 38.8027C113.398 39.0693 111.905 39.256 109.291 39.3627L105.451 39.5227L105.291 56.9627C105.238 68.696 105.078 74.7227 104.811 75.0427C104.545 75.416 104.145 75.6027 103.611 75.6027C102.705 75.6027 102.145 74.7493 101.931 73.0427C101.771 71.336 101.638 65.9493 101.531 56.8827L101.291 39.5227L96.8113 39.3627C93.8247 39.256 92.1447 39.0693 91.7713 38.8027C91.398 38.4293 91.2113 37.816 91.2113 36.9627ZM143.629 37.3627C144.429 37.096 145.175 36.9627 145.869 36.9627C147.362 36.9627 148.829 37.3627 150.269 38.1627C151.709 38.9627 152.829 40.0027 153.629 41.2827C154.269 42.296 154.589 42.9627 154.589 43.2827C154.589 43.4427 154.482 43.6827 154.269 44.0027C153.842 44.5893 153.469 44.8827 153.149 44.8827C152.722 44.8827 151.922 44.2693 150.749 43.0427C149.149 41.336 147.575 40.4827 146.029 40.4827C145.015 40.4827 144.002 40.936 142.989 41.8427C141.922 42.8027 141.389 44.0293 141.389 45.5227C141.389 46.056 141.469 46.616 141.629 47.2027C142.162 49.2827 144.855 52.0293 149.709 55.4427C152.482 57.3627 154.295 59.0427 155.149 60.4827C156.002 61.9227 156.429 64.0027 156.429 66.7227C156.429 72.0027 154.589 75.2293 150.909 76.4027C150.002 76.6693 149.229 76.8027 148.589 76.8027C146.349 76.8027 144.215 75.8427 142.189 73.9227C140.215 72.0027 138.722 69.4427 137.709 66.2427C137.442 65.336 137.309 64.6427 137.309 64.1627C137.309 62.9893 137.842 62.4027 138.909 62.4027C139.975 62.4027 140.882 63.5493 141.629 65.8427C142.269 67.8693 143.229 69.5227 144.509 70.8027C145.789 72.0827 147.149 72.7493 148.589 72.8027H148.749C151.415 72.8027 152.749 70.9093 152.749 67.1227C152.749 67.016 152.722 66.8293 152.669 66.5627C152.669 66.2427 152.669 66.0027 152.669 65.8427C152.562 64.136 152.189 62.8827 151.549 62.0827C150.962 61.2293 149.442 59.9227 146.989 58.1627C142.989 55.336 140.402 52.9093 139.229 50.8827C138.215 49.176 137.709 47.5493 137.709 46.0027C137.709 45.3627 137.789 44.696 137.949 44.0027C138.589 40.7493 140.482 38.536 143.629 37.3627ZM170.136 41.6027C169.763 40.9627 169.443 40.6427 169.176 40.6427C168.75 40.6427 168.19 41.736 167.496 43.9227C166.803 46.056 166.19 48.7493 165.656 52.0027C165.39 53.4427 164.99 56.1093 164.456 60.0027C163.976 63.8427 163.736 66.0027 163.736 66.4827C163.736 66.6427 166.11 66.7227 170.856 66.7227H177.976L177.736 65.1227C177.363 62.616 176.19 58.4027 174.216 52.4827C172.296 46.5093 170.936 42.8827 170.136 41.6027ZM166.296 38.0027C166.776 37.3627 167.203 36.9627 167.576 36.8027C167.95 36.5893 168.51 36.4827 169.256 36.4827C170.323 36.4827 171.256 36.9093 172.056 37.7627C174.35 40.216 177.31 48.296 180.936 62.0027C182.643 68.456 183.523 71.736 183.576 71.8427C183.896 72.6427 184.056 73.3627 184.056 74.0027C184.056 74.9627 183.763 75.576 183.176 75.8427C182.856 76.0027 182.59 76.0827 182.376 76.0827C181.31 76.0827 180.483 75.016 179.896 72.8827L179.256 70.6427C177.496 70.6427 174.856 70.616 171.336 70.5627C167.816 70.5093 165.176 70.4827 163.416 70.4827L163.096 72.4027C162.883 73.736 162.643 74.6427 162.376 75.1227C162.163 75.5493 161.79 75.7627 161.256 75.7627H160.936L159.816 75.6827L159.896 71.9227C160.003 67.5493 160.536 61.976 161.496 55.2027C162.456 48.4293 163.336 43.976 164.136 41.8427C164.67 40.3493 165.39 39.0693 166.296 38.0027ZM187.474 34.4827C187.848 34.1093 190.594 33.9227 195.714 33.9227C200.781 33.9227 203.501 34.1093 203.874 34.4827C204.194 34.8027 204.354 35.2293 204.354 35.7627C204.354 36.5093 204.088 37.016 203.554 37.2827C203.021 37.5493 202.061 37.6827 200.674 37.6827H198.674L198.354 47.7627C198.248 53.2027 198.194 57.6827 198.194 61.2027V65.2027C198.301 69.256 198.461 71.6293 198.674 72.3227C198.888 73.016 199.714 73.3627 201.154 73.3627H201.474C202.754 73.3627 203.554 73.5227 203.874 73.8427C204.194 74.1627 204.354 74.5893 204.354 75.1227C204.354 75.8693 204.114 76.3493 203.634 76.5627C203.208 76.776 201.554 76.8827 198.674 76.8827C197.288 76.8827 196.194 76.856 195.394 76.8027C191.874 76.696 189.528 76.536 188.354 76.3227C187.181 76.1093 186.594 75.7093 186.594 75.1227C186.594 74.7493 186.648 74.456 186.754 74.2427C186.968 73.7093 187.234 73.416 187.554 73.3627C187.928 73.256 188.994 73.1493 190.754 73.0427L194.274 72.8827L194.514 55.9227C194.568 52.8293 194.594 48.776 194.594 43.7627C194.594 40.2427 194.568 38.4293 194.514 38.3227C194.354 37.896 193.314 37.6827 191.394 37.6827C189.474 37.6827 188.248 37.5493 187.714 37.2827C187.234 37.016 186.994 36.536 186.994 35.8427C186.994 35.256 187.154 34.8027 187.474 34.4827ZM208.49 34.8027C208.863 34.5893 209.29 34.4827 209.77 34.4827C210.517 34.4827 211.023 34.696 211.29 35.1227C211.503 35.4427 211.797 41.4693 212.17 53.2027C212.543 64.8827 212.863 70.9093 213.13 71.2827C213.343 71.5493 214.197 71.6827 215.69 71.6827C215.957 71.6827 217.797 71.6293 221.21 71.5227C223.983 71.416 225.61 71.3627 226.09 71.3627C227.797 71.3627 228.863 71.496 229.29 71.7627C229.77 71.976 230.01 72.456 230.01 73.2027C230.01 74.216 229.423 74.856 228.25 75.1227C227.077 75.336 224.063 75.4427 219.21 75.4427C213.237 75.4427 210.063 75.2293 209.69 74.8027C209.317 74.2693 208.917 67.5493 208.49 54.6427C208.223 47.5493 208.09 42.1627 208.09 38.4827C208.09 36.136 208.223 34.9093 208.49 34.8027Z" fill="#D92932"/>
<path d="M249.347 30.1645C340.649 110.402 129.898 107.003 78.005 102.963C22.6417 98.6523 4.52406 79.0518 8.9114 52.4829C13.913 22.1944 40.3828 5.10725 98.8217 3.06515C190.061 -0.123113 247.649 -8.09955 263.5 64.1672C279.351 136.434 55.5 102.963 19.5 79.0315C-16.5001 55.1002 1.9999 3.06505 72.5003 9.48665C157.518 17.2306 233 -6.97047 249.347 15.8162" stroke="#EE2327" stroke-width="2" stroke-linecap="round"/>
</svg>
