<svg width="50" height="50" viewBox="0 0 50 50" fill="none" xmlns="http://www.w3.org/2000/svg">
<path d="M0.499443 25.9291L15.7144 34.2856L24.0709 49.5006C24.2857 49.7852 24.6428 50 25 50C25.3572 50 25.7143 49.7852 25.9291 49.5006L34.2856 34.2856L49.5006 25.9291C49.7852 25.7143 50 25.3572 50 25C50 24.6428 49.7852 24.2857 49.5006 24.0709L34.2134 15.7866L25.9291 0.499442C25.7143 0.214843 25.3572 0 25 0C24.6428 0 24.2857 0.214843 24.0709 0.499442L15.7866 15.7866L0.499443 24.0709C0.214843 24.2857 0 24.6428 0 25C0 25.3572 0.214843 25.7143 0.499443 25.9291Z" fill="#000000"/>
</svg>
